<svg xmlns="http://www.w3.org/2000/svg" width="32" height="32" viewBox="0 0 32 32" fill="none">
  <rect width="32" height="32" rx="8" fill="#0d9488"/>
  <path d="M16 8c-2.2 0-4 1.8-4 4 0 1.5.8 2.8 2 3.5V20a2 2 0 1 0 4 0v-4.5c1.2-.7 2-2 2-3.5 0-2.2-1.8-4-4-4z" fill="white" opacity="0.9"/>
  <circle cx="16" cy="20" r="1.5" fill="white"/>
  <path d="M10 14c0 0-2 1-2 3s2 4 4 5" stroke="white" stroke-width="1.5" stroke-linecap="round" fill="none" opacity="0.7"/>
  <path d="M22 14c0 0 2 1 2 3s-2 4-4 5" stroke="white" stroke-width="1.5" stroke-linecap="round" fill="none" opacity="0.7"/>
</svg>
